<svg width="111" height="39" viewBox="0 0 111 39" fill="none" xmlns="http://www.w3.org/2000/svg">
<path d="M58.8818 13.2245C57.1189 13.1524 55.47 13.7629 53.9808 15.0374C52.4995 16.3063 51.5896 17.8518 51.2771 19.6316C50.9704 21.3714 51.3136 22.8986 52.2954 24.1709C53.2829 25.45 54.6479 26.129 56.3538 26.1862C56.4233 26.1884 56.4917 26.1896 56.5613 26.1896C58.0106 26.1839 59.4212 25.7163 60.5877 24.8556L60.4988 25.3631C60.4531 25.6238 60.6265 25.8718 60.8865 25.9187C60.9138 25.9233 60.9412 25.9255 60.9697 25.9255H62.4943C62.7258 25.9255 62.9242 25.7586 62.9652 25.53L63.9755 19.787C64.3359 18.0575 64.0097 16.5315 63.0074 15.2478C62.0039 13.9641 60.6139 13.2828 58.8818 13.2245ZM59.8043 22.5408C58.8362 23.3981 57.8133 23.7856 56.6833 23.7422C55.7403 23.7319 54.8588 23.2689 54.3138 22.4962C53.7265 21.6949 53.5452 20.7793 53.7607 19.6933C53.9694 18.5719 54.5715 17.5626 55.4563 16.8458C56.2888 16.0925 57.3686 15.673 58.4907 15.6707C59.5113 15.6707 60.2946 16.0331 60.8842 16.7784C61.4828 17.5363 61.6938 18.4302 61.5273 19.5115C61.3392 20.6981 60.7268 21.7738 59.8043 22.5408Z" fill="#231F20"/>
<path d="M92.0806 13.2245C90.32 13.1524 88.6688 13.7629 87.1796 15.0374C85.6983 16.3063 84.7884 17.8518 84.4759 19.6316C84.1692 21.3714 84.5124 22.8986 85.4942 24.1709C86.4817 25.45 87.8467 26.129 89.5526 26.1862C89.6221 26.1884 89.6905 26.1896 89.7601 26.1896C91.2094 26.1839 92.62 25.7163 93.7865 24.8556L93.6976 25.3631C93.6519 25.6238 93.8253 25.8718 94.0853 25.9187C94.1126 25.9233 94.14 25.9255 94.1685 25.9255H95.6931C95.9246 25.9255 96.123 25.7586 96.164 25.53L97.1743 19.787C97.5347 18.0575 97.2085 16.5315 96.2062 15.2478C95.2016 13.9641 93.8127 13.2828 92.0806 13.2245ZM93.0031 22.5408C92.035 23.3981 91.011 23.7856 89.8821 23.7422C88.9391 23.7319 88.0576 23.2689 87.5126 22.4962C86.9253 21.6949 86.744 20.7793 86.9595 19.6933C87.1682 18.5719 87.7703 17.5626 88.6551 16.8458C89.4876 16.0925 90.5674 15.673 91.6895 15.6707C92.7101 15.6707 93.4934 16.0331 94.083 16.7784C94.6816 17.5363 94.8926 18.4302 94.7261 19.5115C94.538 20.6981 93.9256 21.7738 93.0031 22.5408Z" fill="#231F20"/>
<path d="M109.868 15.2502C108.877 13.9642 107.501 13.2829 105.777 13.2246C104.03 13.1697 102.384 13.7836 100.896 15.0581C99.415 16.3258 98.505 17.8713 98.1914 19.6523C97.8858 21.3921 98.2268 22.9193 99.2063 24.1916C100.193 25.4718 101.569 26.1428 103.293 26.1863C103.367 26.1886 103.443 26.1897 103.517 26.1897C105.184 26.1897 106.753 25.5724 108.184 24.3527C109.672 23.0839 110.583 21.5521 110.892 19.7986C111.198 18.0599 110.853 16.5293 109.868 15.2502ZM103.596 23.7412C102.652 23.748 101.764 23.2896 101.221 22.5146C100.64 21.711 100.462 20.7931 100.677 19.7026C100.888 18.5755 101.49 17.5604 102.377 16.8379C103.192 16.0903 104.254 15.6743 105.358 15.6708C105.375 15.6708 105.392 15.6708 105.408 15.6708C106.429 15.6708 107.208 16.0332 107.79 16.7796C108.385 17.541 108.599 18.4383 108.444 19.5242C108.264 20.6856 107.699 21.6767 106.72 22.5501C105.752 23.4131 104.733 23.8006 103.596 23.7412Z" fill="#231F20"/>
<path d="M45.0523 13.2451C43.311 13.1902 41.6587 13.8052 40.1638 15.0786C38.6757 16.3463 37.7646 17.8792 37.4567 19.6305L35.964 28.1158C35.9184 28.3764 36.0918 28.6244 36.3518 28.6713C36.3791 28.6759 36.4065 28.6782 36.435 28.6782H37.9197C38.1511 28.6782 38.3496 28.5113 38.3906 28.2827L39.0075 24.7767C39.9369 25.6695 41.1308 26.1508 42.5721 26.2091C44.3225 26.2662 45.9645 25.6489 47.4526 24.3755C48.9338 23.1067 49.8438 21.5612 50.1574 19.7814C50.463 18.0415 50.122 16.5144 49.1425 15.2432C48.155 13.9607 46.7787 13.2885 45.0523 13.2451ZM42.9267 23.7617C41.8891 23.7617 41.0977 23.3982 40.5059 22.6506C39.9049 21.8915 39.694 20.9942 39.8605 19.9105C40.0406 18.748 40.6051 17.7581 41.588 16.8836C42.4923 16.0777 43.441 15.6845 44.4889 15.6845C44.5653 15.6845 44.6417 15.6868 44.7193 15.6902C45.6657 15.6833 46.5563 16.1417 47.1014 16.9179C47.6852 17.7226 47.8711 18.6417 47.6681 19.7265C47.4457 20.8513 46.8368 21.8618 45.9474 22.5831C45.018 23.3764 44.0294 23.7617 42.9267 23.7617Z" fill="#231F20"/>
<path d="M78.7093 13.3252C77.6477 13.3766 76.6237 13.7356 75.7616 14.3597L76.2941 11.3305C76.3397 11.0699 76.1664 10.8218 75.9064 10.7749C75.8791 10.7704 75.8517 10.7681 75.8232 10.7681H74.2986C74.0671 10.7681 73.8687 10.935 73.8277 11.1636L71.3304 25.3633C71.2848 25.6239 71.4581 25.872 71.7181 25.9188C71.7455 25.9234 71.7728 25.9257 71.8013 25.9257H73.3259C73.5574 25.9257 73.7558 25.7588 73.7969 25.5302L74.9919 18.7333C75.1299 17.8885 75.5792 17.126 76.2508 16.5979C76.9053 16.0424 77.7343 15.7349 78.5918 15.7292C79.3399 15.6789 80.0663 15.9944 80.5429 16.5751C81.0389 17.1569 81.2351 17.9388 81.0697 18.6864L79.8952 25.3621C79.8496 25.6228 80.0229 25.8708 80.2829 25.9177C80.3103 25.9223 80.3376 25.9246 80.3662 25.9246H81.8907C82.1222 25.9246 82.3206 25.7576 82.3617 25.529L83.5077 19.0145C83.7916 17.3992 83.4587 16.0149 82.5179 14.9016C81.5726 13.7813 80.2898 13.2463 78.7093 13.3252Z" fill="#231F20"/>
<path d="M68.7955 15.872H71.0419C71.2734 15.872 71.4718 15.7052 71.5129 15.4765L71.7637 14.0488C71.8094 13.7882 71.636 13.5401 71.376 13.4932C71.3487 13.4887 71.3213 13.4864 71.2928 13.4864H69.2152L69.5937 11.3305C69.6394 11.0699 69.466 10.8218 69.206 10.7749C69.1787 10.7704 69.1513 10.7681 69.1228 10.7681H67.5982C67.3667 10.7681 67.1683 10.935 67.1273 11.1636L66.719 13.4852H66.0964C65.865 13.4852 65.6665 13.6521 65.6255 13.8807L65.3746 15.3085C65.329 15.5691 65.5023 15.8172 65.7623 15.8641C65.7897 15.8686 65.8171 15.8709 65.8456 15.8709H66.3006L65.215 22.0448C64.9972 23.2862 65.1831 24.2705 65.7703 24.9712C66.434 25.7645 67.5994 26.1669 69.2323 26.1669C69.4638 26.1669 69.6622 26 69.7032 25.7714L69.9256 24.5048C69.9712 24.2442 69.7979 23.9961 69.5379 23.9493C69.5105 23.9447 69.4831 23.9424 69.4546 23.9424C68.7134 23.9424 68.2026 23.7801 67.9346 23.46C67.6746 23.1502 67.6051 22.6415 67.7271 21.9511L68.7955 15.872Z" fill="#231F20"/>
<path d="M15.6848 4C10.834 4 6.49972 6.20849 3.6216 9.67554C4.145 12.283 4.89189 14.6103 5.84633 16.5982C5.5259 17.4361 5.28872 18.2911 5.16557 19.0948L4.41411 23.1871C2.97163 21.4301 1.56449 19.1085 0.435595 16.0484C0.153941 17.2269 0 18.4569 0 19.7235C0 23.6843 1.46415 27.3 3.87474 30.064L5.01049 23.8809L5.86799 19.2125C5.96606 18.5746 6.14052 17.9036 6.37201 17.2372C6.40279 17.148 6.43244 17.06 6.46551 16.9708C6.5077 16.8565 6.55331 16.7434 6.59893 16.6302C6.62971 16.5525 6.66164 16.4747 6.69471 16.397C6.74374 16.2816 6.79506 16.1661 6.84751 16.0518C6.88514 15.9695 6.92505 15.886 6.96496 15.8037C7.01742 15.6963 7.06987 15.59 7.1246 15.4848C7.18276 15.3728 7.24548 15.2608 7.30933 15.1487C7.35266 15.0722 7.39372 14.9944 7.43705 14.9201C8.9297 12.395 11.5456 10.0676 15.7373 10.0676C15.743 10.0676 15.7476 10.0676 15.7533 10.0676C19.6805 10.0733 23.1265 12.4441 24.5313 16.1078C25.9635 19.8412 24.9532 23.8844 21.8938 26.661C19.0373 29.2524 14.5263 29.7417 10.4018 27.9058C10.2365 27.8327 10.0597 27.7481 9.87615 27.6566L10.7884 22.691C11.2833 23.0225 11.7964 23.3117 12.3312 23.5494C14.7384 24.6217 17.2402 24.4548 18.7032 23.1276C20.2951 21.6827 20.8151 19.6983 20.0933 17.8202C19.5402 16.3799 18.108 14.839 15.7464 14.8355C15.7441 14.8355 15.7407 14.8355 15.7373 14.8355C11.5034 14.8355 10.6447 19.4491 10.5603 19.9761L10.5489 20.0447L10.1498 22.2314L9.21706 27.3057L8.0836 33.4773C10.3357 34.7313 12.9265 35.4469 15.686 35.4469C24.3489 35.4469 31.3708 28.4077 31.3708 19.7235C31.3697 11.0393 24.3477 4 15.6848 4Z" fill="#E83434"/>
</svg>
